<mxfile host="Electron" modified="2024-04-12T15:14:35.782Z" agent="Mozilla/5.0 (Windows NT 10.0; Win64; x64) AppleWebKit/537.36 (KHTML, like Gecko) draw.io/24.1.0 Chrome/120.0.6099.109 Electron/28.1.0 Safari/537.36" etag="xM2qGkK5vSEYcZjSt1oR" version="24.1.0" type="device">
  <diagram name="Pagina-1" id="wqZOBMc03xEELvP_3BDI">
    <mxGraphModel dx="880" dy="532" grid="1" gridSize="10" guides="1" tooltips="1" connect="1" arrows="1" fold="1" page="1" pageScale="1" pageWidth="827" pageHeight="1169" math="0" shadow="0">
      <root>
        <mxCell id="0" />
        <mxCell id="1" parent="0" />
        <mxCell id="hVb5Vw--sMHRzco0jCZx-1" value="Giocatore" style="rounded=0;whiteSpace=wrap;html=1;" vertex="1" parent="1">
          <mxGeometry x="40" y="40" width="180" height="30" as="geometry" />
        </mxCell>
        <mxCell id="hVb5Vw--sMHRzco0jCZx-2" value="&lt;div style=&quot;text-align: justify;&quot;&gt;&lt;span style=&quot;background-color: initial;&quot;&gt;- GiocatoreID: int&lt;/span&gt;&lt;/div&gt;&lt;div style=&quot;text-align: justify;&quot;&gt;- Nome : string&lt;br&gt;&lt;/div&gt;&lt;div style=&quot;text-align: justify;&quot;&gt;-&amp;nbsp;Crediti : int&lt;/div&gt;&lt;div style=&quot;text-align: justify;&quot;&gt;-&amp;nbsp;Colore : string&lt;/div&gt;&lt;div style=&quot;text-align: justify;&quot;&gt;- Personaggi : [Personaggio]&lt;/div&gt;" style="rounded=0;whiteSpace=wrap;html=1;" vertex="1" parent="1">
          <mxGeometry x="40" y="70" width="180" height="90" as="geometry" />
        </mxCell>
        <mxCell id="hVb5Vw--sMHRzco0jCZx-3" value="&lt;div style=&quot;&quot;&gt;&lt;span style=&quot;background-color: initial;&quot;&gt;+ Get ( )&lt;/span&gt;&lt;/div&gt;&lt;div style=&quot;&quot;&gt;+Set ( )&lt;/div&gt;" style="rounded=0;whiteSpace=wrap;html=1;align=center;" vertex="1" parent="1">
          <mxGeometry x="40" y="160" width="180" height="50" as="geometry" />
        </mxCell>
        <mxCell id="hVb5Vw--sMHRzco0jCZx-4" value="Personaggio" style="rounded=0;whiteSpace=wrap;html=1;" vertex="1" parent="1">
          <mxGeometry x="610" y="40" width="180" height="30" as="geometry" />
        </mxCell>
        <mxCell id="hVb5Vw--sMHRzco0jCZx-5" value="&lt;div style=&quot;text-align: justify;&quot;&gt;&lt;span style=&quot;background-color: initial;&quot;&gt;-&amp;nbsp;PersonaggioID : int&lt;/span&gt;&lt;/div&gt;&lt;div style=&quot;text-align: justify;&quot;&gt;- Nome : string&lt;br&gt;&lt;/div&gt;&lt;div style=&quot;text-align: justify;&quot;&gt;-&amp;nbsp;Categoria: string&lt;/div&gt;&lt;div style=&quot;text-align: justify;&quot;&gt;-&amp;nbsp;Mezzo: string&lt;/div&gt;&lt;div style=&quot;text-align: justify;&quot;&gt;- Costo: int&lt;/div&gt;&lt;div style=&quot;text-align: justify;&quot;&gt;-&amp;nbsp;GiocatoreRIF : int&lt;/div&gt;&lt;div style=&quot;text-align: justify;&quot;&gt;-&amp;nbsp;Giocatore :&amp;nbsp;Giocatore&lt;/div&gt;" style="rounded=0;whiteSpace=wrap;html=1;" vertex="1" parent="1">
          <mxGeometry x="610" y="70" width="180" height="120" as="geometry" />
        </mxCell>
        <mxCell id="hVb5Vw--sMHRzco0jCZx-6" value="&lt;div style=&quot;&quot;&gt;&lt;span style=&quot;background-color: initial;&quot;&gt;+ Get ( )&lt;/span&gt;&lt;/div&gt;&lt;div style=&quot;&quot;&gt;+Set ( )&lt;/div&gt;" style="rounded=0;whiteSpace=wrap;html=1;align=center;" vertex="1" parent="1">
          <mxGeometry x="610" y="190" width="180" height="50" as="geometry" />
        </mxCell>
        <mxCell id="hVb5Vw--sMHRzco0jCZx-7" style="edgeStyle=orthogonalEdgeStyle;rounded=0;orthogonalLoop=1;jettySize=auto;html=1;entryX=1.011;entryY=0.844;entryDx=0;entryDy=0;entryPerimeter=0;endArrow=diamond;endFill=0;" edge="1" parent="1" source="hVb5Vw--sMHRzco0jCZx-4" target="hVb5Vw--sMHRzco0jCZx-2">
          <mxGeometry relative="1" as="geometry" />
        </mxCell>
        <mxCell id="hVb5Vw--sMHRzco0jCZx-8" value="GiocatoreDTO" style="rounded=0;whiteSpace=wrap;html=1;" vertex="1" parent="1">
          <mxGeometry x="30" y="350" width="200" height="30" as="geometry" />
        </mxCell>
        <mxCell id="hVb5Vw--sMHRzco0jCZx-9" value="&lt;div style=&quot;text-align: justify;&quot;&gt;&lt;span style=&quot;background-color: initial;&quot;&gt;- Name : string&lt;/span&gt;&lt;br&gt;&lt;/div&gt;&lt;div style=&quot;text-align: justify;&quot;&gt;-&amp;nbsp;Credits : int&lt;/div&gt;&lt;div style=&quot;text-align: justify;&quot;&gt;-&amp;nbsp;Color : string&lt;/div&gt;&lt;div style=&quot;text-align: justify;&quot;&gt;- Charqacters: [PersonaggioDTO]&lt;/div&gt;" style="rounded=0;whiteSpace=wrap;html=1;" vertex="1" parent="1">
          <mxGeometry x="30" y="380" width="200" height="90" as="geometry" />
        </mxCell>
        <mxCell id="hVb5Vw--sMHRzco0jCZx-10" value="&lt;div style=&quot;&quot;&gt;&lt;span style=&quot;background-color: initial;&quot;&gt;+ Get ( )&lt;/span&gt;&lt;/div&gt;&lt;div style=&quot;&quot;&gt;+Set ( )&lt;/div&gt;" style="rounded=0;whiteSpace=wrap;html=1;align=center;" vertex="1" parent="1">
          <mxGeometry x="30" y="470" width="200" height="50" as="geometry" />
        </mxCell>
        <mxCell id="hVb5Vw--sMHRzco0jCZx-18" style="edgeStyle=orthogonalEdgeStyle;rounded=0;orthogonalLoop=1;jettySize=auto;html=1;entryX=1;entryY=0.75;entryDx=0;entryDy=0;endArrow=diamond;endFill=0;" edge="1" parent="1" source="hVb5Vw--sMHRzco0jCZx-15" target="hVb5Vw--sMHRzco0jCZx-9">
          <mxGeometry relative="1" as="geometry" />
        </mxCell>
        <mxCell id="hVb5Vw--sMHRzco0jCZx-15" value="PersonaggioDTO" style="rounded=0;whiteSpace=wrap;html=1;" vertex="1" parent="1">
          <mxGeometry x="600" y="350" width="200" height="30" as="geometry" />
        </mxCell>
        <mxCell id="hVb5Vw--sMHRzco0jCZx-16" value="&lt;div style=&quot;text-align: justify;&quot;&gt;&lt;span style=&quot;background-color: initial;&quot;&gt;- Name : string&lt;/span&gt;&lt;br&gt;&lt;/div&gt;&lt;div style=&quot;text-align: justify;&quot;&gt;- Category: string&lt;/div&gt;&lt;div style=&quot;text-align: justify;&quot;&gt;-&amp;nbsp;Veichle: string&lt;/div&gt;&lt;div style=&quot;text-align: justify;&quot;&gt;- Cost: string&lt;/div&gt;&lt;div style=&quot;text-align: justify;&quot;&gt;- Player : GiocatoreDTO&lt;/div&gt;" style="rounded=0;whiteSpace=wrap;html=1;" vertex="1" parent="1">
          <mxGeometry x="600" y="380" width="200" height="90" as="geometry" />
        </mxCell>
        <mxCell id="hVb5Vw--sMHRzco0jCZx-17" value="&lt;div style=&quot;&quot;&gt;&lt;span style=&quot;background-color: initial;&quot;&gt;+ Get ( )&lt;/span&gt;&lt;/div&gt;&lt;div style=&quot;&quot;&gt;+Set ( )&lt;/div&gt;" style="rounded=0;whiteSpace=wrap;html=1;align=center;" vertex="1" parent="1">
          <mxGeometry x="600" y="470" width="200" height="50" as="geometry" />
        </mxCell>
      </root>
    </mxGraphModel>
  </diagram>
</mxfile>
